<svg width="448" height="512" viewBox="0 0 448 512" fill="none" xmlns="http://www.w3.org/2000/svg">
<g clip-path="url(#clip0_1_2)">
<path d="M432 80H349.62L315.62 23.25C306.1 8.827 291.4 0 274.6 0H173.4C156.6 0 141 8.827 132.4 23.25L98.38 80H16C7.125 80 0 87.13 0 96V112C0 120.9 7.125 128 16 128H32V448C32 483.35 60.65 512 96 512H352C387.35 512 416 483.35 416 448V128H432C440.9 128 448 120.9 448 112V96C448 87.13 440.9 80 432 80ZM171.9 50.88C172.9 49.13 174.9 48 177 48H271C273.125 48 275.125 49.125 276.125 50.875L293.6 80H154.4L171.9 50.88ZM352 464H96C87.163 464 80 456.837 80 448V128H368V448C368 456.8 360.8 464 352 464ZM224 416C232.844 416 240 408.844 240 400V192C240 183.156 232.844 176 224 176C215.156 176 208 183.2 208 192V400C208 408.8 215.2 416 224 416ZM144 416C152.8 416 160 408.8 160 400V192C160 183.156 152.844 176 144 176C135.156 176 128 183.2 128 192V400C128 408.8 135.2 416 144 416ZM304 416C312.844 416 320 408.844 320 400V192C320 183.156 312.844 176 304 176C295.156 176 288 183.2 288 192V400C288 408.8 295.2 416 304 416Z" fill="white"/>
</g>
<defs>
<clipPath id="clip0_1_2">
<rect width="448" height="512" fill="white"/>
</clipPath>
</defs>
</svg>
